<mxfile host="Electron" modified="2023-12-27T00:58:11.460Z" agent="Mozilla/5.0 (Windows NT 10.0; Win64; x64) AppleWebKit/537.36 (KHTML, like Gecko) draw.io/22.1.2 Chrome/114.0.5735.289 Electron/25.9.4 Safari/537.36" etag="kfYyaagNOLRXoT9sOj9a" version="22.1.2" type="device" pages="2">
  <diagram name="Predict" id="ZGAhzHHpjNbUnT1k5Ilm">
    <mxGraphModel dx="1050" dy="629" grid="1" gridSize="10" guides="1" tooltips="1" connect="1" arrows="1" fold="1" page="0" pageScale="1" pageWidth="850" pageHeight="1100" math="0" shadow="0">
      <root>
        <mxCell id="0" />
        <mxCell id="1" parent="0" />
        <mxCell id="e6MehBTxtqncLAYEGsQc-1" value="End" style="strokeWidth=2;html=1;shape=mxgraph.flowchart.terminator;whiteSpace=wrap;" parent="1" vertex="1">
          <mxGeometry x="150" y="780" width="100" height="60" as="geometry" />
        </mxCell>
        <mxCell id="e6MehBTxtqncLAYEGsQc-4" value="" style="edgeStyle=orthogonalEdgeStyle;rounded=0;orthogonalLoop=1;jettySize=auto;html=1;" parent="1" source="e6MehBTxtqncLAYEGsQc-2" target="e6MehBTxtqncLAYEGsQc-3" edge="1">
          <mxGeometry relative="1" as="geometry" />
        </mxCell>
        <mxCell id="e6MehBTxtqncLAYEGsQc-2" value="Predict" style="strokeWidth=2;html=1;shape=mxgraph.flowchart.start_1;whiteSpace=wrap;" parent="1" vertex="1">
          <mxGeometry x="150" y="80" width="100" height="60" as="geometry" />
        </mxCell>
        <mxCell id="e6MehBTxtqncLAYEGsQc-6" value="" style="edgeStyle=orthogonalEdgeStyle;rounded=0;orthogonalLoop=1;jettySize=auto;html=1;" parent="1" source="e6MehBTxtqncLAYEGsQc-3" target="e6MehBTxtqncLAYEGsQc-5" edge="1">
          <mxGeometry relative="1" as="geometry" />
        </mxCell>
        <mxCell id="e6MehBTxtqncLAYEGsQc-3" value="point" style="shape=parallelogram;perimeter=parallelogramPerimeter;whiteSpace=wrap;html=1;fixedSize=1;strokeWidth=2;" parent="1" vertex="1">
          <mxGeometry x="140" y="170" width="120" height="60" as="geometry" />
        </mxCell>
        <mxCell id="e6MehBTxtqncLAYEGsQc-8" value="F" style="edgeStyle=orthogonalEdgeStyle;rounded=0;orthogonalLoop=1;jettySize=auto;html=1;" parent="1" source="e6MehBTxtqncLAYEGsQc-5" target="e6MehBTxtqncLAYEGsQc-7" edge="1">
          <mxGeometry relative="1" as="geometry" />
        </mxCell>
        <mxCell id="e6MehBTxtqncLAYEGsQc-13" value="T" style="edgeStyle=orthogonalEdgeStyle;rounded=0;orthogonalLoop=1;jettySize=auto;html=1;" parent="1" source="e6MehBTxtqncLAYEGsQc-5" target="e6MehBTxtqncLAYEGsQc-11" edge="1">
          <mxGeometry relative="1" as="geometry" />
        </mxCell>
        <mxCell id="e6MehBTxtqncLAYEGsQc-5" value="in effective" style="rhombus;whiteSpace=wrap;html=1;strokeWidth=2;" parent="1" vertex="1">
          <mxGeometry x="160" y="270" width="80" height="80" as="geometry" />
        </mxCell>
        <mxCell id="e6MehBTxtqncLAYEGsQc-10" value="F" style="edgeStyle=orthogonalEdgeStyle;rounded=0;orthogonalLoop=1;jettySize=auto;html=1;" parent="1" source="e6MehBTxtqncLAYEGsQc-7" target="e6MehBTxtqncLAYEGsQc-9" edge="1">
          <mxGeometry relative="1" as="geometry" />
        </mxCell>
        <mxCell id="e6MehBTxtqncLAYEGsQc-15" value="T" style="edgeStyle=orthogonalEdgeStyle;rounded=0;orthogonalLoop=1;jettySize=auto;html=1;" parent="1" source="e6MehBTxtqncLAYEGsQc-7" target="e6MehBTxtqncLAYEGsQc-14" edge="1">
          <mxGeometry relative="1" as="geometry" />
        </mxCell>
        <mxCell id="e6MehBTxtqncLAYEGsQc-7" value="in static" style="rhombus;whiteSpace=wrap;html=1;strokeWidth=2;" parent="1" vertex="1">
          <mxGeometry x="310" y="360" width="80" height="80" as="geometry" />
        </mxCell>
        <mxCell id="e6MehBTxtqncLAYEGsQc-17" value="T" style="edgeStyle=orthogonalEdgeStyle;rounded=0;orthogonalLoop=1;jettySize=auto;html=1;" parent="1" source="e6MehBTxtqncLAYEGsQc-9" target="e6MehBTxtqncLAYEGsQc-14" edge="1">
          <mxGeometry relative="1" as="geometry">
            <Array as="points">
              <mxPoint x="520" y="540" />
            </Array>
          </mxGeometry>
        </mxCell>
        <mxCell id="e6MehBTxtqncLAYEGsQc-19" value="F" style="edgeStyle=orthogonalEdgeStyle;rounded=0;orthogonalLoop=1;jettySize=auto;html=1;entryX=0.5;entryY=0;entryDx=0;entryDy=0;" parent="1" source="e6MehBTxtqncLAYEGsQc-9" target="e6MehBTxtqncLAYEGsQc-18" edge="1">
          <mxGeometry relative="1" as="geometry" />
        </mxCell>
        <mxCell id="e6MehBTxtqncLAYEGsQc-9" value="in dynamic" style="rhombus;whiteSpace=wrap;html=1;strokeWidth=2;" parent="1" vertex="1">
          <mxGeometry x="480" y="450" width="80" height="80" as="geometry" />
        </mxCell>
        <mxCell id="e6MehBTxtqncLAYEGsQc-12" value="" style="edgeStyle=orthogonalEdgeStyle;rounded=0;orthogonalLoop=1;jettySize=auto;html=1;" parent="1" source="e6MehBTxtqncLAYEGsQc-11" target="e6MehBTxtqncLAYEGsQc-1" edge="1">
          <mxGeometry relative="1" as="geometry" />
        </mxCell>
        <mxCell id="e6MehBTxtqncLAYEGsQc-11" value="apply Polinomial" style="verticalLabelPosition=bottom;verticalAlign=top;html=1;shape=offPageConnector;rounded=0;size=0.5;fillColor=#60a917;fontColor=#ffffff;strokeColor=#2D7600;" parent="1" vertex="1">
          <mxGeometry x="170" y="680" width="60" height="60" as="geometry" />
        </mxCell>
        <mxCell id="e6MehBTxtqncLAYEGsQc-16" style="edgeStyle=orthogonalEdgeStyle;rounded=0;orthogonalLoop=1;jettySize=auto;html=1;entryX=1;entryY=0.5;entryDx=0;entryDy=0;" parent="1" source="e6MehBTxtqncLAYEGsQc-14" target="e6MehBTxtqncLAYEGsQc-11" edge="1">
          <mxGeometry relative="1" as="geometry">
            <Array as="points">
              <mxPoint x="350" y="710" />
            </Array>
          </mxGeometry>
        </mxCell>
        <mxCell id="e6MehBTxtqncLAYEGsQc-14" value="train" style="verticalLabelPosition=bottom;verticalAlign=top;html=1;shape=offPageConnector;rounded=0;size=0.5;fillColor=#0050ef;fontColor=#ffffff;strokeColor=#001DBC;" parent="1" vertex="1">
          <mxGeometry x="320" y="510" width="60" height="60" as="geometry" />
        </mxCell>
        <mxCell id="e6MehBTxtqncLAYEGsQc-21" value="" style="edgeStyle=orthogonalEdgeStyle;rounded=0;orthogonalLoop=1;jettySize=auto;html=1;" parent="1" source="e6MehBTxtqncLAYEGsQc-18" target="e6MehBTxtqncLAYEGsQc-20" edge="1">
          <mxGeometry relative="1" as="geometry" />
        </mxCell>
        <mxCell id="e6MehBTxtqncLAYEGsQc-18" value="train" style="verticalLabelPosition=bottom;verticalAlign=top;html=1;shape=offPageConnector;rounded=0;size=0.5;fillColor=#0050ef;fontColor=#ffffff;strokeColor=#001DBC;" parent="1" vertex="1">
          <mxGeometry x="590" y="540" width="60" height="60" as="geometry" />
        </mxCell>
        <mxCell id="e6MehBTxtqncLAYEGsQc-22" style="edgeStyle=orthogonalEdgeStyle;rounded=0;orthogonalLoop=1;jettySize=auto;html=1;" parent="1" source="e6MehBTxtqncLAYEGsQc-20" target="e6MehBTxtqncLAYEGsQc-9" edge="1">
          <mxGeometry relative="1" as="geometry">
            <Array as="points">
              <mxPoint x="760" y="710" />
              <mxPoint x="760" y="470" />
            </Array>
          </mxGeometry>
        </mxCell>
        <mxCell id="e6MehBTxtqncLAYEGsQc-20" value="Update dynamic" style="verticalLabelPosition=bottom;verticalAlign=top;html=1;shape=offPageConnector;rounded=0;size=0.5;fillColor=#d80073;fontColor=#ffffff;strokeColor=#A50040;" parent="1" vertex="1">
          <mxGeometry x="590" y="680" width="60" height="60" as="geometry" />
        </mxCell>
      </root>
    </mxGraphModel>
  </diagram>
  <diagram id="Iy7ic0jkT18pI2zd2E2t" name="Arch">
    <mxGraphModel dx="1124" dy="434" grid="1" gridSize="10" guides="1" tooltips="1" connect="1" arrows="1" fold="1" page="0" pageScale="1" pageWidth="850" pageHeight="1100" math="0" shadow="0">
      <root>
        <mxCell id="0" />
        <mxCell id="1" parent="0" />
        <mxCell id="WxusPBghoRzA2kkbGHWM-1" value="DataRange" style="swimlane;fontStyle=1;align=center;verticalAlign=top;childLayout=stackLayout;horizontal=1;startSize=26;horizontalStack=0;resizeParent=1;resizeParentMax=0;resizeLast=0;collapsible=1;marginBottom=0;whiteSpace=wrap;html=1;fillColor=#a20025;fontColor=#ffffff;strokeColor=#6F0000;" vertex="1" parent="1">
          <mxGeometry x="-160" y="10" width="190" height="410" as="geometry" />
        </mxCell>
        <mxCell id="WxusPBghoRzA2kkbGHWM-2" value="df : initial data frame" style="text;strokeColor=#2D7600;fillColor=#60a917;align=left;verticalAlign=top;spacingLeft=4;spacingRight=4;overflow=hidden;rotatable=0;points=[[0,0.5],[1,0.5]];portConstraint=eastwest;whiteSpace=wrap;html=1;fontColor=#ffffff;" vertex="1" parent="WxusPBghoRzA2kkbGHWM-1">
          <mxGeometry y="26" width="190" height="26" as="geometry" />
        </mxCell>
        <mxCell id="WxusPBghoRzA2kkbGHWM-3" value="" style="line;strokeWidth=1;fillColor=none;align=left;verticalAlign=middle;spacingTop=-1;spacingLeft=3;spacingRight=3;rotatable=0;labelPosition=right;points=[];portConstraint=eastwest;strokeColor=inherit;" vertex="1" parent="WxusPBghoRzA2kkbGHWM-1">
          <mxGeometry y="52" width="190" height="8" as="geometry" />
        </mxCell>
        <mxCell id="WxusPBghoRzA2kkbGHWM-4" value="extract_df(intl_index,fnl_index): extract sub data frame from data range on specifyc initial and final index" style="text;strokeColor=#BD7000;fillColor=#f0a30a;align=left;verticalAlign=top;spacingLeft=4;spacingRight=4;overflow=hidden;rotatable=0;points=[[0,0.5],[1,0.5]];portConstraint=eastwest;whiteSpace=wrap;html=1;fontColor=#000000;" vertex="1" parent="WxusPBghoRzA2kkbGHWM-1">
          <mxGeometry y="60" width="190" height="70" as="geometry" />
        </mxCell>
        <mxCell id="WxusPBghoRzA2kkbGHWM-5" value="min_val_from(column_name : str): &lt;br&gt;return min value from specifyc column" style="text;strokeColor=#BD7000;fillColor=#f0a30a;align=left;verticalAlign=top;spacingLeft=4;spacingRight=4;overflow=hidden;rotatable=0;points=[[0,0.5],[1,0.5]];portConstraint=eastwest;whiteSpace=wrap;html=1;fontColor=#000000;" vertex="1" parent="WxusPBghoRzA2kkbGHWM-1">
          <mxGeometry y="130" width="190" height="70" as="geometry" />
        </mxCell>
        <mxCell id="WxusPBghoRzA2kkbGHWM-6" value="get_value(index): return value in index" style="text;strokeColor=#BD7000;fillColor=#f0a30a;align=left;verticalAlign=top;spacingLeft=4;spacingRight=4;overflow=hidden;rotatable=0;points=[[0,0.5],[1,0.5]];portConstraint=eastwest;whiteSpace=wrap;html=1;fontColor=#000000;" vertex="1" parent="WxusPBghoRzA2kkbGHWM-1">
          <mxGeometry y="200" width="190" height="70" as="geometry" />
        </mxCell>
        <mxCell id="WxusPBghoRzA2kkbGHWM-9" value="near_value(value, column_name): return the most near value to value passed in a specifyc column" style="text;strokeColor=#BD7000;fillColor=#f0a30a;align=left;verticalAlign=top;spacingLeft=4;spacingRight=4;overflow=hidden;rotatable=0;points=[[0,0.5],[1,0.5]];portConstraint=eastwest;whiteSpace=wrap;html=1;fontColor=#000000;" vertex="1" parent="WxusPBghoRzA2kkbGHWM-1">
          <mxGeometry y="270" width="190" height="70" as="geometry" />
        </mxCell>
        <mxCell id="WxusPBghoRzA2kkbGHWM-7" value="sort_by(column_name): sort internal data frame using a specifyc column name as reference" style="text;strokeColor=#BD7000;fillColor=#f0a30a;align=left;verticalAlign=top;spacingLeft=4;spacingRight=4;overflow=hidden;rotatable=0;points=[[0,0.5],[1,0.5]];portConstraint=eastwest;whiteSpace=wrap;html=1;fontColor=#000000;" vertex="1" parent="WxusPBghoRzA2kkbGHWM-1">
          <mxGeometry y="340" width="190" height="70" as="geometry" />
        </mxCell>
      </root>
    </mxGraphModel>
  </diagram>
</mxfile>
